<?xml version="1.0" encoding="UTF-8"?>
<svg id="_레이어_1" data-name="레이어 1" xmlns="http://www.w3.org/2000/svg" viewBox="0 0 267.5893093971 214.16536445">
  <defs>
    <style>
      .cls-1 {
        fill: #fff;
      }

      .cls-2 {
        fill: none;
      }

      .cls-3 {
        fill: #0b2b48;
      }
    </style>
  </defs>
  <path class="cls-2" d="M166.2762783415,74.5218093114c-.6185302734.5539550781-1.4937744141.6271972656-2.1854248047.2578125l-3.3509521484,2.8100585938.7321777344.9860839844c.6514892578.8774414062.4412841797,2.1207275391-.4625244141,2.7353515625l-1.15625,1.0625,2.3151855469,3.3447265625c3.6096191406-3.0812988281,6.8739013672-6.1287841797,9.7697753906-8.9705810547l-4.2419433594-3.4979248047-1.4200439453,1.2719726562Z"/>
  <path class="cls-2" d="M231.4875820524,43.6187331395l-2.5698242188-3.65234375-21.8933105469,6.2807617188.3251953125,2.0731201172c7.1430664062-2.8609619141,15.0162353516-4.3953857422,24.1379394531-4.7015380859Z"/>
  <path class="cls-2" d="M156.0244472868,90.7018630224l-2.4509277344-3.4311523438c-2.5047607422,3.9981689453-5.3942871094,7.6842041016-8.5358886719,11.0489501953,3.8957519531-2.4188232422,7.5710449219-4.9876708984,10.9868164062-7.6177978516Z"/>
  <path class="cls-2" d="M200.2120693571,51.738850327l-1.2071533203-3.19140625-1.7780761719.5102539062.0969238281.1489257812-3.1945800781,2.0780029297-3.3583984375,2.5870361328,2.1818847656,2.6506347656c2.36328125-1.7834472656,4.7746582031-3.3803710938,7.2593994141-4.7834472656Z"/>
  <path class="cls-2" d="M182.8244961149,65.553669663c1.4697265625-1.5177001953,2.9454345703-2.9302978516,4.4288330078-4.2830810547l-2.5540771484-2.7216796875-4.216796875,3.2482910156-7.8547363281,7.0355224609,3.4770507812,3.7286376953c2.6741943359-2.7458496094,4.9287109375-5.1580810547,6.7197265625-7.0076904297Z"/>
  <path class="cls-3" d="M74.6726406462,112.5540358739s5.8244628906.9011230469,15.45703125.8508300781l-1.0217285156-3.9742431641-1.8967285156.1920166016c-1.0614013672.107421875-2.0073242188-.6701660156-2.1069335938-1.732421875l-.3238525391-3.4498291016c.0968017578.001953125.1905517578.0037841797.2899169922.0057373047,1.2794189453.02734375,2.8427734375.0612792969,4.6499023438.0612792969,7.0010986328,0,17.6589355469-.5015869141,29.6279296875-3.798828125.8917236328-.2457275391,1.7899169922-.5318603516,2.6915283203-.841796875l.0224609375.1564941406c2.0064697266-.5897216797,4.4464111328-1.3388671875,6.9415283203-2.1263427734l-.4859619141-.7259521484c10.3979492188-5.0141601562,21.0643310547-13.2252197266,30.6031494141-21.0407714844.6062011719-1.6141357422,1.1408691406-3.271484375,1.6091308594-4.9660644531l-5.5100097656-6.2419433594c-.7060546875-.8000488281-.6253662109-2.0217285156.1796875-2.7221679688l6.3015136719-5.4813232422c.3178710938-.2763671875.712890625-.4200439453,1.1196289062-.4505615234.0892333984-8.3039550781-1.513671875-17.3662109375-5.3608398438-27.2006835938C146.9787929899,2.2744948583,116.0152920134-.0000412745,92.0100429899-.0000412745h-52.2729492188l-12.7756347656,57.2667236328L.0000332243,214.1652419286v.0001220703l.0021972656-.0017089844,50.9772949219-35.1463623047,23.5682373047-136.0280761719.0228271484-.1490478516.4216308594.5186767578s6.263671875-1.1260986328,20.8446044922-.7896728516c14.5811767578.3363037109,27.4844970703,4.9675292969,19.4826660156,26.6940917969-6.0025634766,16.2983398438-24.5190429688,16.2612304688-35.9097900391,15.595703125l-6.4138183594,37.4985351562h0l1.6767578125-9.8034667969ZM123.8425625212,86.7055251317l6.9744873047-4.5947265625c.5716552734-.3765869141,1.3004150391-.4206542969,1.9132080078-.1158447266l4.541015625,2.2585449219c.6285400391.3125,1.3774414062.2575683594,1.9537353516-.1433105469l4.0504150391-2.8189697266c.666015625-.4636230469.9692382812-1.2955322266.7575683594-2.0791015625l-1.0819091797-4.0021972656c-.1983642578-.7338867188.0545654297-1.5158691406.6453857422-1.9947509766l7.1174316406-5.7668457031c.8493652344-.6882324219,2.1010742188-.5302734375,2.7529296875.3474121094l4.8521728516,6.5341796875c-9.6329345703,7.9069824219-20.4420166016,16.2757568359-30.8646240234,21.2520751953l-4.1516113281-6.2025146484c-.5935058594-.8864746094-.3510742188-2.0869140625.5397949219-2.6739501953ZM85.6750820524,93.2591139989l8.3208007812-.7199707031c.6821289062-.0588378906,1.3438720703.2491455078,1.7376708984.8089599609l2.9178466797,4.1480712891c.4040527344.57421875,1.0888671875.8824462891,1.7863769531.8043212891l4.9040527344-.5504150391c.8065185547-.0905761719,1.4692382812-.6779785156,1.6560058594-1.4677734375l.9541015625-4.0344238281c.1750488281-.7399902344.7697753906-1.3071289062,1.5173339844-1.4468994141l9.0046386719-1.6824951172c1.0745849609-.2009277344,2.1000976562.5339355469,2.2553710938,1.6160888672l1.0358886719,7.2182617188c-.98046875.3452148438-1.9552001953.6561279297-2.9217529297.9223632812-14.791015625,4.0753173828-27.5859375,3.8031005859-33.7326660156,3.669921875-.1784667969-.0037841797-.3431396484-.0072021484-.5092773438-.0106201172l-.6741943359-7.1810302734c-.0998535156-1.0623779297.6848144531-2.0025634766,1.7478027344-2.0943603516Z"/>
  <path class="cls-3" d="M105.5981777556,112.5557448583c2.1750488281-.2248535156,4.3100585938-.5495605469,6.4143066406-.9415283203l-.5541992188-4.4451904297-15.763671875,1.5952148438.0632324219,4.5070800781c3.0310058594-.1268310547,6.3244628906-.3519287109,9.8403320312-.7155761719Z"/>
  <path class="cls-3" d="M137.6102627165,102.5791823583l-3.0491943359-3.287109375-1.5766601562,1.0720214844c-.8823242188.5998535156-2.0842285156.3662109375-2.677734375-.5205078125l-.3295898438-.4924316406c-3.3693847656,1.0715332031-5.8498535156,1.8266601562-7.6737060547,2.3532714844l.3331298828,2.3212890625c.1552734375,1.0817871094-.6217041016,2.0750732422-1.708984375,2.1851806641l-1.5227050781.3840332031.3507080078,3.1983642578c6.3314208984-1.8149414062,12.2899169922-4.3118896484,17.8547363281-7.2141113281Z"/>
  <path class="cls-3" d="M140.0359218962,95.5699050145l2.4204101562,4.3249511719c.8759765625-.513671875,1.7277832031-1.0451660156,2.5812988281-1.5751953125,3.1416015625-3.3647460938,6.0311279297-7.05078125,8.5358886719-11.0489501953l-.4348144531-.6087646484-13.1027832031,8.9079589844Z"/>
  <path class="cls-3" d="M267.2809170134,88.4007155614c.701171875-8.8393554688.3719482422-18.0620117188-2.7333984375-26.408203125-18.240234375-9.0971679688-43.23828125-12.8754882812-61.5524902344,2.9241943359,6.8336181641.0443115234,14.1610107422,1.3649902344,20.2686767578,5.4720458984,16.6207275391,11.1765136719,5.6826171875,36.4169921875-13.7102050781,36.2495117188-8.0433349609-.0693359375-18.7438964844-.525390625-28.5179443359-1.0349121094l2.9259033203-18.8579101562c-15.1010742188,15.80078125-30.7958984375,24.9005126953-40.59375,29.5463867188l-9.865234375,65.9736328125c12.0189208984-.1296386719,24.1538085938-.2199707031,36.4060058594-.2646484375l5.6787109375-41.2834472656c6.9038085938-1.2540283203,18.3103027344-2.7709960938,20.5076904297.3902587891,2.1143798828,3.0413818359,11.8177490234,25.8509521484,18.1378173828,40.9271240234,13.1572265625.06640625,26.1539306641.1925048828,39.03125.357421875l-16.7731933594-47.6358642578s28.2827148438-14.7429199219,30.7901611328-46.3555908203Z"/>
  <path class="cls-3" d="M243.7781093962,31.7923171239c.2185058594-.6970214844.333984375-1.4527587891.2712402344-2.2762451172-.4655761719-6.1243896484-21.0942382812-8.5197753906-28.6369628906-5.6257324219l1.6180419922,7.5997314453-8.8187255859,2.9509277344-2.5881347656-3.4858398438c-1.0635986328-1.4323730469-2.8015136719-2.2126464844-4.5739746094-2.0107421875-2.7788085938.3159179688-6.9978027344,1.2612304688-10.3950195312,4.0303955078l4.2510986328,13.6550292969c14.8868408203-9.0928955078,29.3343505859-14.0379638672,48.8724365234-14.8375244141Z"/>
  <path class="cls-3" d="M161.3313320524,71.8451735692c.9108886719-.7552490234,1.8106689453-1.5030517578,2.6945800781-2.2384033203,3.9038085938-3.2470703125,7.5910644531-6.3138427734,10.9921875-8.9567871094,5.7142333984-4.4389648438,11.0786132812-8.3594970703,16.3354492188-11.7783203125l-9.1069335938-9.3522949219c-.7629394531-.783203125-2.0244140625-.7734375-2.7747802734.0217285156l-6.2874755859,6.6618652344c-.5219726562.5532226562-.6687011719,1.3618164062-.3742675781,2.0629882812l1.6042480469,3.8227539062c.3140869141.7481689453.1242675781,1.61328125-.4743652344,2.1613769531l-3.6396484375,3.3322753906c-.5178222656.4741210938-1.2529296875.6281738281-1.9174804688.4018554688l-4.80078125-1.634765625c-.2492675781-.0848388672-.5070800781-.1003417969-.7612304688-.0812988281-.056640625,5.2725830078-.8024902344,10.2351074219-2.0908203125,14.8959960938l.6013183594.6810302734Z"/>
  <path class="cls-1" d="M155.3996914274,62.2000319677c-.8050537109.7004394531-.8857421875,1.9221191406-.1796875,2.7221679688l5.5100097656,6.2419433594c1.2883300781-4.6608886719,2.0341796875-9.6234130859,2.0908203125-14.8959960938-.4067382812.0305175781-.8017578125.1741943359-1.1196289062.4505615234l-6.3015136719,5.4813232422Z"/>
  <path class="cls-1" d="M127.4543789274,95.5819899755c10.4226074219-4.9763183594,21.2316894531-13.3450927734,30.8646240234-21.2520751953l-4.8521728516-6.5341796875c-.6518554688-.8776855469-1.9035644531-1.0356445312-2.7529296875-.3474121094l-7.1174316406,5.7668457031c-.5908203125.4788818359-.84375,1.2608642578-.6453857422,1.9947509766l1.0819091797,4.0021972656c.2116699219.7835693359-.0915527344,1.6154785156-.7575683594,2.0791015625l-4.0504150391,2.8189697266c-.5762939453.4008789062-1.3251953125.4558105469-1.9537353516.1433105469l-4.541015625-2.2585449219c-.6127929688-.3048095703-1.3415527344-.2607421875-1.9132080078.1158447266l-6.9744873047,4.5947265625c-.8908691406.5870361328-1.1333007812,1.7874755859-.5397949219,2.6739501953l4.1516113281,6.2025146484Z"/>
  <path class="cls-1" d="M85.1107509978,102.5451247411c6.1467285156.1331787109,18.9416503906.4053955078,33.7326660156-3.669921875.9665527344-.2662353516,1.9412841797-.5771484375,2.9217529297-.9223632812l-1.0358886719-7.2182617188c-.1552734375-1.0821533203-1.1807861328-1.8170166016-2.2553710938-1.6160888672l-9.0046386719,1.6824951172c-.7475585938.1397705078-1.3422851562.7069091797-1.5173339844,1.4468994141l-.9541015625,4.0344238281c-.1867675781.7897949219-.8494873047,1.3771972656-1.6560058594,1.4677734375l-4.9040527344.5504150391c-.6975097656.078125-1.3823242188-.2301025391-1.7863769531-.8043212891l-2.9178466797-4.1480712891c-.3937988281-.5598144531-1.0555419922-.8677978516-1.7376708984-.8089599609l-8.3208007812.7199707031c-1.0629882812.091796875-1.84765625,1.0319824219-1.7478027344,2.0943603516l.6741943359,7.1810302734c.1661376953.0034179688.3308105469.0068359375.5092773438.0106201172Z"/>
  <path class="cls-3" d="M183.6868008024,73.7578932958c12.4399414062-15.3959960938,24.9869384766-21.5529785156,40.5756835938-25.2487792969,15.5888671875-3.6958007812,34.43359375,1.6953125,40.0992431641,6.8825683594,0,0-7.1158447266-10.5021972656-26.0809326172-11.7287597656l.3131103516-.0493164062.2711181641-6.5009765625s2.4328613281-1.1931152344,3.9709472656-3.4166259766c-18.4630126953.8421630859-32.1296386719,5.5059814453-46.3811035156,14.1751708984l-.0466308594-.0717773438-3.2492675781,2.1174316406-1.0241699219.7888183594c.0048828125-.0417480469.0162353516-.0827636719.0184326172-.1247558594-5.1011962891,3.3507080078-10.3428955078,7.2004394531-15.9681396484,11.5703125-3.3771972656,2.6232910156-7.0524902344,5.6812744141-10.9431152344,8.9174804688-.8703613281.7238769531-1.7551269531,1.4595947266-2.6514892578,2.2028808594l.2930908203.33203125-3.1450195312,2.6376953125-.2846679688-.3831787109c-.1102294922.0904541016-.2225341797.1815185547-.3330078125.2720947266-1.4859619141,3.9559326172-3.3706054688,7.666015625-5.5473632812,11.1405029297l2.4509277344,3.4311523438c-3.4157714844,2.6301269531-7.0910644531,5.1989746094-10.9868164062,7.6177978516-4.2056884766,4.5046386719-8.8471679688,8.4450683594-13.5699462891,11.8234863281-16.2689208984,11.6374511719-43.7542724609,12.2406005859-58.4718017578,12.2143554688,0,0,21.9714355469,2.0551757812,44.0141601562-3.5437011719,22.2131347656-5.6422119141,50.8125-25.4221191406,66.6767578125-45.0559082031ZM228.9177578337,39.9663893895l2.5698242188,3.65234375c-9.1217041016.3061523438-16.9948730469,1.8405761719-24.1379394531,4.7015380859l-.3251953125-2.0731201172,21.8933105469-6.2807617188ZM194.1291836149,51.2846266942l3.1945800781-2.0780029297-.0969238281-.1489257812,1.7780761719-.5102539062,1.2071533203,3.19140625c-2.4847412109,1.4030761719-4.8961181641,3-7.2593994141,4.7834472656l-2.1818847656-2.6506347656,3.3583984375-2.5870361328ZM162.1684902556,85.7183425145l-2.3151855469-3.3447265625,1.15625-1.0625c.9038085938-.6146240234,1.1140136719-1.8579101562.4625244141-2.7353515625l-.7321777344-.9860839844,3.3509521484-2.8100585938c.6916503906.3693847656,1.5668945312.2961425781,2.1854248047-.2578125l1.4200439453-1.2719726562,4.2419433594,3.4979248047c-2.8958740234,2.841796875-6.16015625,5.8892822266-9.7697753906,8.9705810547ZM180.4824550993,61.7971999364l4.216796875-3.2482910156,2.5540771484,2.7216796875c-1.4833984375,1.3527832031-2.9591064453,2.7653808594-4.4288330078,4.2830810547-1.791015625,1.849609375-4.0455322266,4.2618408203-6.7197265625,7.0076904297l-3.4770507812-3.7286376953,7.8547363281-7.0355224609Z"/>
  <path class="cls-1" d="M131.4676845915,110.143147202c4.7227783203-3.3784179688,9.3642578125-7.3188476562,13.5699462891-11.8234863281-.853515625.5300292969-1.7053222656,1.0615234375-2.5812988281,1.5751953125l-2.4204101562-4.3249511719,13.1027832031-8.9079589844.4348144531.6087646484c2.1767578125-3.4744873047,4.0614013672-7.1845703125,5.5473632812-11.1405029297-9.5388183594,7.8155517578-20.2052001953,16.0266113281-30.6031494141,21.0407714844l.4859619141.7259521484c-2.4951171875.7874755859-4.9350585938,1.5366210938-6.9415283203,2.1263427734l-.0224609375-.1564941406c-.9016113281.3099365234-1.7998046875.5960693359-2.6915283203.841796875-11.9689941406,3.2972412109-22.6268310547,3.798828125-29.6279296875,3.798828125-1.8071289062,0-3.3704833984-.0339355469-4.6499023438-.0612792969-.0993652344-.001953125-.1931152344-.0037841797-.2899169922-.0057373047l.3238525391,3.4498291016c.099609375,1.0622558594,1.0455322266,1.83984375,2.1069335938,1.732421875l1.8967285156-.1920166016,1.0217285156,3.9742431641c-9.6325683594.0502929688-15.45703125-.8508300781-15.45703125-.8508300781l-1.6767578125,9.8034667969h0c14.7175292969.0262451172,42.2028808594-.5769042969,58.4718017578-12.2143554688ZM120.9275234587,106.2108962255c1.0872802734-.1101074219,1.8642578125-1.1033935547,1.708984375-2.1851806641l-.3331298828-2.3212890625c1.8238525391-.5266113281,4.3043212891-1.2817382812,7.6737060547-2.3532714844l.3295898438.4924316406c.5935058594.88671875,1.7954101562,1.1203613281,2.677734375.5205078125l1.5766601562-1.0720214844,3.0491943359,3.287109375c-5.5648193359,2.9022216797-11.5233154297,5.3991699219-17.8547363281,7.2141113281l-.3507080078-3.1983642578,1.5227050781-.3840332031ZM111.4582851774,107.1690261083l.5541992188,4.4451904297c-2.1042480469.3919677734-4.2392578125.7166748047-6.4143066406.9415283203-3.5158691406.3636474609-6.8093261719.5887451172-9.8403320312.7155761719l-.0632324219-4.5070800781,15.763671875-1.5952148438Z"/>
</svg>