<?xml version="1.0" encoding="UTF-8"?>
<svg id="_레이어_1" data-name="레이어 1" xmlns="http://www.w3.org/2000/svg" viewBox="0 0 267.5893093971 214.16536445">
  <defs>
    <style>
      .cls-1 {
        fill: #0b2b48;
      }

      .cls-2 {
        fill: #e9820e;
      }
    </style>
  </defs>
  <path class="cls-2" d="M79.4096676753,84.8589590769l-6.4138614043,37.4985866942c14.7174202264.0262315102,42.2029566299-.5768597806,58.4718935304-12.2143921089,21.4253574332-15.3262741508,41.2054591193-42.1872119625,25.9923405025-81.0756829374C146.9787517958,2.2745548192,116.0152829474,0,92.0099793391,0h-52.2728418592l-12.7756455458,57.2667298977L0,214.1652358642v.0001285858l.002314545-.0016716158,50.977210995-35.1463660312,23.5682403583-136.0281249932.0227596926-.1490309817.4217615358.5187152547s6.2635445643-1.1261547349,20.8445352206-.789774193c14.5811192422.336380542,27.4844505213,4.9675279425,19.4826826518,26.694161985-6.0025153211,16.2983830565-24.5190612112,16.2612454793-35.9098373238,15.5956852021Z"/>
  <g>
    <path class="cls-1" d="M117.2865006005,102.8925466474c-.1562352449,0-.2228810487-.0240361915-.2764162026-.0437021664l.2895268525-.7877315497.0928671036-.8281560536c.9035422907-.0163883124,8.268449886-2.2451987996,14.7909982236-4.3505506667l25.3996991212-18.8334486171,10.6611434973-8.9414632488,24.9146050739-19.1907138275,3.249256073-2.1173699629.9155603864,1.4072097586-3.194628365,2.0780380131-24.8337560661,19.1306233487-10.6742541472,8.9512962362-25.6597270113,19.0279232577-.1311064992.0426096123c-12.1732384553,3.9321024233-14.8194046318,4.4554358661-15.5437680401,4.4554358661Z"/>
    <path class="cls-1" d="M244.0494142154,29.5160629574c-.4655646416-6.1243123462-21.0943528828-8.5197373429-28.6370736677-5.6256979412l1.6180727116,7.5996701705-8.818687475,2.9509887873-2.5881242367-3.4857940488c-1.0636014752-1.4323385043-2.8015820058-2.2126953134-4.5739779925-2.0108459322-2.7787749377.3160212909-6.9978093974,1.2613537782-10.3951065592,4.0304322977l4.2511282381,13.6550150353c14.8868698512-9.092782,29.3343963606-14.0379552685,48.8724058419-14.8374317754.2185108321-.6970495543.3340484345-1.4528238948.2713631396-2.2763365932Z"/>
    <path class="cls-1" d="M195.7897946882,49.469925866l3.2151137555-.9223888499,1.8341252968,4.8490285024,7.0350928081-1.7311520672-.849597429-5.41824922,21.8931465433-6.2808207296,3.2757505114,4.655646416,6.4004554102-1.0082909208.271090001-6.5011069622s2.4329815459-1.1930691432,3.9710246653-3.4165534289c-18.8860277861.8613423862-32.7517692051,5.7096880423-47.3600377453,14.7660060472l.3138361826,1.007881213Z"/>
    <path class="cls-1" d="M175.0181549906,60.6500325894c5.7141948282-4.4390475537,11.0784991865-8.3595415891,16.3353235293-11.7782801263l-9.1069169194-9.3524001824c-.7628076579-.7832247637-2.02436629-.7733917763-2.7747461443.0217145139l-6.2873760546,6.6619855624c-.5219677501.5531055437-.6687114308,1.3617321917-.3744046538,2.0628788241l1.6042792153,3.8228470073c.3141093211.7481264613.1242097511,1.6131562178-.4743050749,2.1613452678l-3.6397076161,3.3322901892c-.5178023874.4740319363-1.2528181988.628082073-1.9173642669.4017867925l-4.8008878347-1.6347341625c-.6479529018-.2205593711-1.3643270078-.079893023-1.8808319871.3692833062l-6.3015792587,5.4813442228c-.8050075623.7003272168-.8856517163,1.9220759067-.1795885901,2.7220986907l6.1113382655,6.9229694374c.9109170312-.7552280634,1.8106353823-1.5030813862,2.6945799827-2.2383703361,3.9036960151-3.2470709647,7.5910663065-6.313870493,10.9921874079-8.956759007Z"/>
    <path class="cls-1" d="M165.2419803632,71.0686290631c-.8704242427.7239537005-1.7551882587,1.4596523583-2.651492378,2.2028623259l.9626085,1.0905056214c.7060631262.7998862147,1.9284946624.8715850815,2.7231912448.159786046l1.42004727-1.2720061812,4.4660882692,3.6828635055,4.2630780493-4.0274277738-3.7977865462-4.0724956329,11.8021114639-10.571007779,3.8511168462,4.103906565,5.3899793811-4.9708482913-3.3149458919-4.0268814967,1.1632970423-1.4561015573c.3974165758-.3561726563.6080063903-.8390815952.6339545516-1.3308675366-5.1011353749,3.3507270407-10.342937098,7.2003416249-15.9682253314,11.570285128-3.3770849098,2.6232225391-7.0524371054,5.6812816341-10.9430224706,8.9174270573Z"/>
    <path class="cls-1" d="M130.3066733839,99.8436376935c.593461763.8867442704,1.7954761934,1.1202777222,2.6777819625.5204654882l1.5766239381-1.0720687699,3.9367457785,4.2440266361,4.414669939-2.8261644744-2.8766268197-5.1399210476,13.1028654765-8.9080037776,3.2712437255,4.5795773326,6.4208725161-4.5663301134-2.9776197949-4.3016588681,1.1563320095-1.062508921c.9037471446-.6145617152,1.1140638204-1.8578883498.462491833-2.7353459098l-2.0180841035-2.7175919047c-9.6226024832,7.8962986251-20.417788719,16.2405444559-30.936217329,21.3128637149l1.7889208684,2.6726606149Z"/>
    <path class="cls-1" d="M153.4667730455,67.7957465063c-.651845126-.8777306986-1.903502486-1.0356047748-2.7529633457-.347432223l-7.1173075087,5.7669105665c-.5908669469.4788118608-.8438615196,1.2608075011-.6454263703,1.9947307584l1.0818334727,4.0021624588c.2118189378.7834979023-.0914331263,1.6154778954-.7574814563,2.0791305673l-4.0504396958,2.8189263031c-.576254035.4009673769-1.3251999119.4558682234-1.9537599774.1432611643l-4.5409282292-2.2584460188c-.6128545994-.3048226107-1.3415882243-.2607107365-1.9132671888.115810741l-6.9743877676,4.5947365216c-.8909779178.5869747227-1.1333200875,1.7874186064-.5399266091,2.6740263076l4.1515692403,6.2024299686c10.4227618364-4.9763110621,21.2318098531-13.3451393616,30.8647233161-21.2520903897l-4.8522378803-6.5341567256Z"/>
    <path class="cls-1" d="M89.7202665792,104.5073416965c-1.8070845813,0-3.3705295849-.033869179-4.6499105067-.061183033-.0994224286-.0019119698-.1931089479-.0038239396-.2899365603-.0057359093l.3238740239,3.4497397615c.0996272825,1.0622357825,1.0455060469,1.8398612061,2.1069906983,1.7325177599l1.8967423071-.1920163937,1.4413520761,5.6064416741,5.2277350883-.3834865103-.0824195545-5.8894132017,15.7636445649-1.5951290742.6962984234,5.5845905909,7.8204343956-.9584431372-.5703132717-5.200284665,1.5227473611-.3840327874c1.0872962435-.1100748317,1.8642388208-1.1033431327,1.7090278454-2.1851083208l-.5968077101-4.1589439809c-.9016303209.3098756737-1.79984641.5959882945-2.6915754588.8416764113-11.9689308273,3.2973284561-22.626796662,3.7988108157-29.6278837219,3.7988108157Z"/>
    <path class="cls-1" d="M118.843390279,98.8752249996c.9665690088-.2663100766,1.9413321738-.5771417352,2.9217629635-.9223888499l-1.0358096287-7.2182321993c-.15527926-1.0821748959-1.1808461935-1.817054138-2.2554414949-1.6161607418l-9.0046265362,1.682533407c-.7475801843.1397103633-1.3422710707.7068825418-1.5172845903,1.4469514162l-.9541412052,4.0343928066c-.1867584768.7897800887-.8495291444,1.3771645192-1.655970684,1.4677099452l-4.9040659183.5505107276c-.6975958314.0781176225-1.3824224361-.23011922-1.7863260523-.8043930006l-2.9179390239-4.1480184393c-.3937974902-.5597974379-1.0556121729-.8678977112-1.7376391075-.8088997865l-8.320824201.7198566224c-1.0629186288.0919111187-1.8475773699,1.0320539738-1.7478818027,2.0944263255l.6742424862,7.1809487885c.166136517.0034142318.3308390567.0068284635.5093350927.0106524031,6.1467097065.1332916076,18.941611479.4053375935,33.7326097026-3.6698894248Z"/>
  </g>
  <path class="cls-2" d="M202.9950528068,64.9167297243c6.8335165655.0442484435,14.1610041809,1.3650098542,20.2686550761,5.4720575124,16.6207533037,11.1765559224,5.6826473268,36.4170152747-13.7101890204,36.2495813496-8.0433837289-.0693771892-18.743859176-.5255185512-28.5179852642-1.0349219285l2.9259966108-18.8580310857c-15.1010787512,15.8007914064-30.795892404,24.9005384391-40.5938498299,29.546488437l-9.8652177914,65.9736098377c12.0189151801-.1297408066,24.1537776705-.2200130941,36.4060897331-.2646712454l5.6785502487-41.2835246437c6.9038497396-1.2539790376,18.3103883128-2.7708539201,20.5077878679.3903149738,2.1143654389,3.041397644,11.8177486453,25.8509239894,18.1377647555,40.9270788489,13.1573566152.0665092345,26.1539711996.1925626708,39.031224242.357538349l-16.7731646091-47.6359076709s28.2828129812-14.7429258405,30.7902247793-46.3555707641c.7011466325-8.839446004.3718781224-18.0619688106-2.7334339401-26.4082631805-18.240191708-9.0971522166-43.2382406059-12.8754776419-61.5524528583,2.9242212103Z"/>
  <path class="cls-1" d="M72.995806271,122.357545771s21.9715860807,2.0550794523,44.0142781269-3.5437942813c22.2130093148-5.6421345513,50.8124368789-25.4219659018,66.6766358637-45.0558755365,12.4399619984-15.3959925724,24.9870353818-21.5529343681,40.5758081428-25.2487002021s34.4334676696,1.695356148,40.0991929363,6.8825433541c0,0-8.1290840782-12.0040134328-30.1761454418-11.845417043-22.0470613636.1585963898-36.8618351695,7.0346148157-51.3610312213,22.0073867377-10.8851906858,11.2407251328-38.5515654012,43.0022952457-77.2262987429,47.0020884356-18.5337459516,1.9167850541-30.9255912375-.0017741476-30.9255912375-.0017741476l-1.6768484262,9.8035426832Z"/>
</svg>