<?xml version="1.0" encoding="UTF-8"?>
<svg id="_레이어_1" data-name="레이어 1" xmlns="http://www.w3.org/2000/svg" viewBox="0 0 267.58930939714 214.16536444999">
  <defs>
    <style>
      .cls-1 {
        fill: #0b2b48;
      }

      .cls-2 {
        fill: #e9820e;
      }
    </style>
  </defs>
  <path class="cls-1" d="M79.40966767532,84.85895907686l-6.4138614043,37.49858669419c14.71742022636.02623151016,42.20295662994-.57685978064,58.4718935304-12.21439210893,21.42535743322-15.32627415077,41.20545911928-42.18721196254,25.99234050251-81.0756829374C146.97875179576,2.27455481918,116.01528294741,0,92.00997933905,0h-52.27284185922l-12.7756455458,57.26672989769L0,214.16523586416v.00012858583l.00231454501-.00167161584,50.97721099495-35.14636603123,23.56824035829-136.02812499318.02275969263-.1490309817.42176153581.51871525471s6.26354456425-1.12615473494,20.84453522064-.78977419297c14.58111924223.33638054198,27.48445052127,4.96752794248,19.48268265182,26.69416198497-6.00251532105,16.29838305647-24.51906121117,16.26124547934-35.90983732384,15.59568520211Z"/>
  <g>
    <path class="cls-2" d="M117.28650060046,102.8925466474c-.15623524494,0-.22288104872-.02403619153-.27641620258-.04370216641l.28952685251-.78773154966.09286710363-.82815605359c.90354229066-.0163883124,8.26844988596-2.24519879963,14.7909982236-4.35055066674l25.39969912115-18.8334486171,10.66114349725-8.94146324878,24.91460507393-19.19071382755,3.24925607305-2.11736996287.91556038643,1.4072097586-3.19462836504,2.0780380131-24.83375606606,19.13062334873-10.67425414718,8.95129623622-25.65972701133,19.02792325766-.13110649925.04260961225c-12.17323845526,3.93210242331-14.81940463177,4.45543586614-15.54376804012,4.45543586614Z"/>
    <path class="cls-2" d="M244.04941421538,29.51606295736c-.4655646416-6.12431234616-21.0943528828-8.51973734286-28.63707366771-5.62569794121l1.61807271156,7.59967017053-8.81868747499,2.95098878726-2.58812423674-3.48579404878c-1.06360147516-1.4323385043-2.80158200582-2.21269531337-4.57397799255-2.01084593223-2.77877493772.31602129089-6.9978093974,1.26135377819-10.39510655919,4.03043229774l4.25112823814,13.65501503531c14.88686985118-9.09278199999,29.33439636059-14.03795526853,48.87240584189-14.83743177541.21851083208-.69704955434.33404843454-1.4528238948.27136313959-2.27633659321Z"/>
    <path class="cls-2" d="M195.78979468821,49.46992586596l3.21511375554-.92238884992,1.83412529679,4.84902850242,7.03509280813-1.73115206716-.84959742899-5.41824922,21.89314654333-6.28082072964,3.27575051144,4.65564641603,6.40045541021-1.00829092078.27109000105-6.50110696224s2.43298154595-1.19306914316,3.97102466527-3.41655342886c-18.88602778607.86134238621-32.75176920508,5.70968804229-47.36003774534,14.76600604718l.31383618257,1.00788121297Z"/>
    <path class="cls-2" d="M175.01815499055,60.65003258941c5.7141948282-4.43904755374,11.07849918653-8.35954158909,16.33532352933-11.77828012627l-9.10691691944-9.35240018236c-.76280765787-.78322476374-2.02436628997-.7733917763-2.77474614426.02171451394l-6.28737605461,6.66198556235c-.52196775013.55310554371-.6687114308,1.36173219168-.37440465384,2.06287882412l1.60427921529,3.82284700727c.31410932111.74812646134.12420975111,1.61315621784-.47430507489,2.16134526782l-3.63970761613,3.33229018925c-.5178023874.47403193634-1.25281819881.62808207296-1.91736426688.40178679249l-4.80088783474-1.63473416251c-.64795290176-.22055937114-1.36432700781-.07989302298-1.88083198714.36928330621l-6.30157925869,5.48134422277c-.80500756231.70032721682-.88565171628,1.92207590669-.17958859012,2.72209869065l6.11133826551,6.92296943742c.91091703124-.75522806338,1.81063538234-1.50308138618,2.69457998274-2.23837033613,3.90369601514-3.24707096473,7.59106630651-6.31387049299,10.99218740786-8.95675900702Z"/>
    <path class="cls-2" d="M165.24198036322,71.06862906306c-.87042424267.72395370053-1.7551882587,1.4596523583-2.65149237804,2.20286232592l.96260849995,1.09050562135c.70606312616.79988621469,1.92849466239.87158508147,2.72319124482.15978604596l1.42004726999-1.27200618125,4.46608826921,3.68286350546,4.26307804927-4.0274277738-3.79778654621-4.07249563292,11.8021114639-10.57100777902,3.85111684616,4.10390656503,5.3899793811-4.97084829131-3.31494589194-4.02688149673,1.16329704229-1.45610155728c.39741657585-.35617265629.60800639027-.83908159519.63395455158-1.33086753665-5.10113537495,3.3507270407-10.34293709804,7.2003416249-15.96822533144,11.57028512799-3.37708490982,2.62322253914-7.05243710543,5.68128163412-10.94302247064,8.91742705725Z"/>
    <path class="cls-2" d="M130.30667338394,99.84363769352c.59346176301.88674427044,1.79547619336,1.12027772222,2.67778196252.52046548816l1.5766239381-1.0720687699,3.93674577849,4.2440266361,4.41466993903-2.82616447443-2.87662681972-5.13992104764,13.1028654765-8.90800377761,3.27124372553,4.57957733262,6.42087251608-4.56633011342-2.97761979492-4.30165886807,1.15633200952-1.062508921c.90374714456-.61456171522,1.11406382044-1.85788834977.46249183303-2.73534590985l-2.01808410354-2.71759190474c-9.62260248316,7.89629862508-20.41778871897,16.24054445592-30.93621732902,21.31286371488l1.7889208684,2.6726606149Z"/>
    <path class="cls-2" d="M153.46677304553,67.79574650629c-.65184512595-.87773069862-1.90350248597-1.0356047748-2.75296334569-.34743222302l-7.11730750871,5.76691056645c-.59086694687.4788118608-.84386151964,1.26080750111-.64542637026,1.99473075836l1.08183347271,4.00216245884c.21181893785.78349790228-.0914331263,1.61547789543-.75748145634,2.07913056726l-4.05043969581,2.81892630312c-.57625403498.40096737687-1.32519991194.45586822343-1.95375997735.14326116428l-4.54092822919-2.25844601883c-.61285459935-.30482261075-1.34158822435-.26071073653-1.91326718878.115810741l-6.9743877676,4.5947365216c-.89097791781.58697472268-1.13332008752,1.78741860642-.53992660915,2.67402630759l4.15156924028,6.20242996864c10.42276183638-4.97631106212,21.2318098531-13.34513936157,30.86472331614-21.25209038971l-4.85223788027-6.53415672558Z"/>
    <path class="cls-2" d="M89.72026657922,104.50734169648c-1.80708458131,0-3.37052958486-.03386917897-4.64991050669-.06118303298-.0994224286-.00191196978-.19310894785-.00382393956-.28993656032-.00573590934l.32387402392,3.44973976149c.0996272825,1.06223578245,1.04550604688,1.83986120612,2.10699069835,1.73251775986l1.8967423071-.19201639369,1.44135207612,5.60644167413,5.22773508828-.3834865103-.08241955448-5.88941320168,15.7636445649-1.59512907419.69629842335,5.58459059092,7.82043439556-.95844313722-.57031327173-5.200284665,1.52274736107-.38403278738c1.08729624351-.11007483166,1.86423882083-1.10334313274,1.70902784542-2.18510832082l-.59680771012-4.15894398085c-.90163032088.30987567374-1.79984641.5959882945-2.6915754588.84167641132-11.96893082726,3.29732845611-22.62679666204,3.79881081573-29.62788372193,3.79881081573Z"/>
    <path class="cls-2" d="M118.84339027904,98.87522499958c.96656900879-.26631007659,1.94133217377-.57714173523,2.92176296347-.92238884992l-1.0358096287-7.21823219927c-.15527926005-1.08217489589-1.18084619349-1.81705413803-2.25544149489-1.61616074178l-9.00462653617,1.68253340702c-.74758018426.13971036327-1.34227107069.70688254179-1.51728459027,1.44695141619l-.95414120521,4.03439280658c-.18675847679.7897800887-.84952914435,1.37716451919-1.655970684,1.46770994524l-4.90406591826.55051072757c-.69759583142.07811762247-1.38242243609-.23011922004-1.78632605227-.8043930006l-2.91793902391-4.14801843926c-.39379749019-.55979743794-1.05561217286-.86789771117-1.73763910749-.80889978651l-8.32082420103.71985662244c-1.06291862881.09191111874-1.84757736988,1.03205397377-1.74788180275,2.0944263255l.67424248624,7.18094878855c.16613651702.00341423175.3308390567.0068284635.50933509265.01065240306,6.14670970645.13329160757,18.94161147898.40533759351,33.73260970258-3.66988942481Z"/>
  </g>
  <path class="cls-1" d="M202.99505280683,64.91672972434c6.83351656554.0442484435,14.16100418085,1.36500985416,20.26865507607,5.4720575124,16.62075330374,11.17655592243,5.68264732682,36.4170152747-13.71018902041,36.24958134962-8.04338372892-.06937718919-18.74385917595-.52551855116-28.51798526423-1.03492192845l2.92599661084-18.85803108571c-15.10107875125,15.80079140635-30.79589240404,24.90053843912-40.59384982994,29.54648843698l-9.8652177914,65.97360983766c12.0189151801-.12974080655,24.15377767048-.22001309405,36.40608973309-.26467124536l5.67855024872-41.28352464369c6.90384973961-1.25397903761,18.31038831281-2.77085392006,20.50778786793.3903149738,2.11436543892,3.04139764404,11.81774864531,25.8509239894,18.13776475546,40.92707884887,13.15735661525.06650923451,26.15397119964.19256267077,39.03122424202.35753834899l-16.77316460912-47.63590767085s28.2828129812-14.74292584053,30.79022477933-46.35557076411c.70114663245-8.83944600405.37187812235-18.06196881059-2.73343394007-26.40826318048-18.240191708-9.09715221663-43.23824060593-12.87547764186-61.5524528583,2.92422121033Z"/>
  <path class="cls-2" d="M72.99580627102,122.35754577105s21.9715860807,2.05507945231,44.01427812686-3.54379428135c22.2130093148-5.64213455134,50.81243687885-25.42196590179,66.67663586374-45.05587553655,12.43996199845-15.39599257235,24.98703538176-21.55293436813,40.57580814284-25.24870020207s34.43346766963,1.695356148,40.09919293626,6.88254335407c0,0-8.1290840782-12.00401343281-30.1761454418-11.84541704301-22.0470613636.15859638979-36.86183516948,7.03461481568-51.36103122135,22.00738673772-10.88519068576,11.24072513281-38.55156540116,43.00229524565-77.22629874289,47.00208843561-18.53374595159,1.91678505412-30.92559123747-.00177414758-30.92559123747-.00177414758l-1.67684842618,9.80354268316Z"/>
</svg>