<?xml version="1.0" encoding="UTF-8"?>
<svg id="_레이어_1" data-name="레이어 1" xmlns="http://www.w3.org/2000/svg" viewBox="0 0 452.214843750004 165.706774730068">
  <defs>
    <style>
      .cls-1 {
        fill: none;
      }

      .cls-2 {
        fill: #0b2b48;
      }

      .cls-3 {
        fill: #e9820e;
      }
    </style>
  </defs>
  <g>
    <path class="cls-3" d="M335.57704029774,76.099670918735c-11.765931521841,1.018476589446-8.437062507925,20.599755540061,3.591823370574,15.132745847979,7.843861888554-3.564917703281,5.655182936343-15.933147843331-3.591823370574-15.132745847979Z"/>
    <path class="cls-3" d="M279.325999651945,97.790844251856c-2.61245708101-1.430920147923-5.356446815955-2.423778074655-7.540465817538-2.579555693213-1.38627983516-.25361234571-2.956183915167-.410486989751-4.65029786955-.3416237083-18.699716148558-.72767694866-20.22768067295,21.639475890583-20.22768067295,21.639475890583,0,0-1.273442459327,9.89726417625,6.478385404394,15.134713155121,7.751827863722,5.237448978862,18.471600470371.598776454426,18.471600470371.598776454426l1.356988716949-.813244936318-.522524701564,2.876051762345,13.126419025511.487082916763,6.868375067419-40.190529460724-12.776197722083-.02872212174-.58460190096,3.217575741059ZM268.276591014217,122.019848794605c-10.98799714557.703741847214-8.106871720811-16.198279360686-1.210255747885-17.608455754034,12.864348454736-2.630367918993,9.784121091992,17.059294770303,1.210255747885,17.608455754034Z"/>
    <path class="cls-3" d="M54.855210312655,102.373370386189l-2.767123061261,16.177961677909c6.349515579386.011317022942,18.207561277484-.248873790921,25.226445478706-5.269637735115,9.243511343959-6.612192558041,17.777212351732-18.20076857813,11.213838324047-34.978366045321-4.521927324971-11.559229426282-17.880452448304-12.540537361943-28.237026284263-12.540537361943h-22.55199747368l-5.511778503442,24.706503454639-11.631957941381,67.690498245904v.000055475595l.000998560847-.000721182832,21.993025301161-15.163146478239,10.16801226248-58.686419603075.009819181672-.064296223494.181959976764.223788581177s2.702272081739-.485855328203,8.992928046688-.340731151613c6.290711440555.14512417659,11.857577217448,2.14313348241,8.405385938795,11.516624163431-2.589656608316,7.03158811424-10.578223544464,7.015565902406-15.492529807132,6.728424182977Z"/>
    <path class="cls-3" d="M419.824121209778,96.293345047239l-1.132700855347,3.424897282142c-2.294970206925-.627595493028-3.263463278367-2.477041134893-5.656847204426-3.519316757893-10.965363099678-4.775007024356-24.271463778492,6.620070093622-25.578746355448,17.518585092084-2.065190260659,17.217685423182,7.859173154888,27.259379738382,24.765030215454,20.630378072734.203262608189,5.686970456671-3.463286399185,8.37520721094-8.126010803735,8.69691023083-1.726789084358.119106118937-3.585887481089-.076445380479-5.441768292869-.578666011465-.166759661632-.045157140577-.342339944087-.104460559831-.52274660398-.171586039061-4.52753036084-1.126043783037-7.574916166794-3.120946455108-7.574916166794-3.120946455108l-4.309067437522,9.288224679709c1.052926938704,2.589767559521,6.904382557306,4.190848928227,9.165845500213,4.707715118326,2.343511359266.535616943793,4.651296430407.865031072453,6.888294632534.978645106725,10.681882770034.542551394134,19.710204251227-3.95219288553,22.871980749891-15.708693554909,2.428167128937-9.028598859206,6.446764310873-42.699571376368,6.446764310873-42.699571376368,0,0-3.983924930262.278543001014-11.795111688845.553424612253ZM410.043273178344,124.020495067347c-13.087804182294,2.978263205032-10.858406137726-15.076770964879-3.799357600168-16.684176552288,12.459820360051-2.83718874744,10.437901069472,15.173464940333,3.799357600168,16.684176552288Z"/>
  </g>
  <g>
    <path class="cls-2" d="M416.924779181485,86.109232136223c-7.706226918322-.677468059821-15.414229055932-.980808655235-22.896223588259-1.926334827165-16.468376457897-1.738605387734-26.750668461884-8.404553804759-37.485197578842-20.847953386419-10.207288989177-12.191096540704-23.054994763108-26.59012206775-40.597267937525-25.212551902208-8.636441823921.702099227412-15.697931287994,5.821609744367-22.557267655933,10.361622115803-9.429521039714,6.258868444622-18.489352663226,12.388811588631-29.345817154859,14.74264140999-21.378965855189,4.748933491108-36.997844409378-8.45181901823-50.294458760127-23.766081038149-4.714649568654-5.386791970615-9.647373731408-9.221820383313-14.690827197095-11.647990390547l-.00582493828-.041606702007c-8.175162187707-3.111404651443-17.171909467137-3.076805842991-28.356798110432.603685508271-16.960804372637,5.581109995344-33.657713848119,34.703318007272-44.278185125988,42.176991199198-10.478897539853,7.37403900953-18.255412046761,9.414431675788-22.448258096683,9.937011852959-.85487903717.165206344755-1.71680347588.310330521343-2.589434705906.423611701997l-.181738074352.890716276495c3.877023443914,1.430271988082,8.125123194099,1.204708187623,12.113652599381.419284604994,6.340306629341-1.406972234954,12.031659658631-4.333865031911,17.177465611248-8.109312647332l-1.876073931151,16.380614054468c3.236724037877-1.523803854181,6.488814817694-.373017952359,7.253878854139.556753148416l2.699054496785-23.903771483978c2.953687513045-2.931108942765,5.703280283862-6.064149079242,8.261648652271-9.233359308668,5.847683277618-7.600157566016,12.626080741258-14.795343232534,19.907142640706-19.654118416925l-3.586941517544,31.556741823737,5.984208735794,8.220596706295,5.125224504025-43.823285184077c10.764485942405-4.351728175978,22.254370865345-2.657947075202,33.241702303683,10.644547689424.677800913441.826031723787,1.906862890632,2.260408906464,2.889113911537,3.399988736539l-2.549603223186,19.59220764434,7.2987586167-.529348200687,1.628097987206-12.205298294999c6.806468118592,6.788105694108,14.706915121869,12.899409035626,23.977775937943,15.942578695784,12.109380977972,4.021093584046,25.676216989339,2.152342432448,36.991908519889-3.288926579995,2.453242101348-1.157110120523,4.792093509985-2.423729080721,7.063597536975-3.755365447256l-2.815608737994,25.623958971621h7.314236309849l3.364040546008-30.614766090368c3.38634173828-2.280047269809,6.70788797264-4.62688716523,10.100332027216-6.914701019408,4.281385111786-2.941760258467,8.943554760312-5.628332744654,13.976079532278-6.122287510843,6.38368855063-.797073459187,13.009694533732,1.978703796098,18.801347452651,6.240339593329,6.465348637765,4.624002433886,11.56033893833,10.78223813526,17.040995628671,16.547484667313l-2.470106684559,22.479712763394,7.31201728574.018417900084,1.771890749338-16.124871526155c.356153369146.305226765902.710087714197.612894458318,1.074007667723.909799883815,9.350967586332,8.170668663895,20.977766296666,12.500650403617,33.346606668334,12.851921919741,7.891071626422.351604369729,15.627921077419-.147565103112,23.333371337303-.981474362472l-.022523094678-1.817824548345Z"/>
    <g>
      <path class="cls-2" d="M132.183821934272,55.813339810007l-.727839907051-.543217101362c.595586070283-.797961068829,14.673962613882-19.61173505648,22.198229555443-25.52676571574,8.930240615669-7.02010466448,32.916115991604-17.796573337064,50.064734289461-6.298478024928l-.505937496366.754468196334c-18.39038418806-12.328010328103-43.325114272089,1.800072355491-48.997827498881,6.258535591005-7.429292709787,5.84047144927-21.885790961194,25.161070542928-22.031358942606,25.355457054691Z"/>
      <path class="cls-2" d="M233.521160810165,47.471806289892c3.4240651481-3.443259706628-3.811451281554-18.020916674272-8.995479924411-21.81500409219l-4.476825659998,4.450252846324-5.897112039598-4.722527104232,1.24093375616-3.30168596861c.509820788553-1.356711338938.277488964564-2.886950363032-.640465832843-4.008445146643-1.439037133303-1.758243751075-3.941818947835-4.222802875365-7.328049734911-5.323660734775l-6.347352030882,7.591725274408c8.366275638911,5.03851613705,24.001353069079,15.417890445706,32.444351466484,27.129344925719Z"/>
      <path class="cls-2" d="M200.192861090713,21.399715399886l-1.771335993306,2.118613266033,2.04510809249,1.789421039777-2.503613948571,3.386896494303,4.278944185269,4.041730508246,3.325762380164-2.965503816416,13.926040538663,12.184328517182-1.736941119649,4.286156013619,4.269957137636,3.434161707786,3.79453122274-2.1844073308s3.532852804938,2.132260264294,6.561543332797.729060370313c-8.37126844315-11.588187690873-23.973892645756-21.889119497358-32.189995828234-26.820456770043Z"/>
      <path class="cls-2" d="M163.426294468874,22.911425572687l.271331172667,1.686902126039c.13763497023.855655695608.94602545236,1.435486694736,1.800738062722,1.291693932611l1.527354292755-.256962991574,1.46827277591,4.46767218555,4.67576117118-.915125541671-.840178002461-4.445149090874,12.693539074106-2.136143556472.863200377571,4.489973377833,5.859222202975-1.073785765308-.528405115449-4.204495926488,1.430993170916-.494953327034c.875515961363-.147343200695,1.452240326738-.994122799875,1.268505130689-1.862759786514l-.24481383459-1.157775827751c-14.349874143074-.863200377571-26.600551481053,3.235780952631-30.245520478991,4.610910191652Z"/>
      <path class="cls-2" d="M193.378903765759,16.915511484733l-1.719133451192-8.129727669117c-.18379067165-.869080791461-1.054424779979-1.409967917501-1.914906853019-1.189618823695l-7.209609323207,1.845562349685c-.598526277225.153334565779-1.050319585382.644848405456-1.15261659671,1.254192425202l-.557696233656,3.321546234358c-.109120510457.650174063312-.615002531218,1.161770071152-1.263956131272,1.278268836759l-3.946035093637.708534397327c-.561357623434.100743694451-1.132922757761-.112504522223-1.491073248608-.556420294801l-2.587326633004-3.206600785623c-.349163443216-.432709700839-.902199726248-.647067429562-1.451907473122-.562855464712l-6.706778460592,1.028628624739c-.85676520766.131366227126-1.442532096271.935540563454-1.304897126041,1.791418161478l1.132922757761,7.042849661571c4.058595091457-1.505275002894,16.099796553746-5.3987747008,30.173013866297-4.625777653171Z"/>
      <path class="cls-2" d="M137.331957862201,46.112654024433l2.041280275906,2.10951526719c.602686947424.622991018005,1.597419978931.635639455419,2.215917473117.02851445978l1.105240432027-1.085102788258,3.761356812342,2.82282056634,3.120169796664-2.89815643477-3.043502513772-3.692567065027,9.185372912358-9.017670165482,3.277942410663,3.187406227102,4.472054758169-4.579621951749-3.002894372617-3.007887176862.77055612111-1.016756845765c.633531382509-.621992457149.621715079142-1.646515887294-.026129008858-2.253640882933l-1.791640063882-1.678913639254c-9.79754618784,6.199731452178-19.129485642456,17.371630220603-22.085725033225,21.08206042969Z"/>
      <path class="cls-2" d="M158.390385685152,24.067980937185l-5.140868623979-4.817501336005c-.648176941615-.607346898045-1.671646335304-.55253700261-2.251089005209.120603960209l-4.855058319015,5.640315474831c-.403085729011.468325037753-.492124071299,1.13003802642-.227228068543,1.688122589301l1.444085413146,3.042725855335c.282648195613.595586070282.16071282094,1.304786174836-.304672009874,1.771668846921l-2.83003239469,2.839796100754c-.402641924193.403973338662-.993401617043.556309343596-1.541112242219.397316266342l-3.957019262965-1.148234024105c-.534063626921-.154998833863-1.110233236268-.014201754284-1.512708733651.369578465001l-4.910478446083,4.682584670309c-.62731811501.598137948007-.647289331971,1.592815503907-.044602384547,2.215695570709l4.112295474843,4.24987496947c3.074125046447-3.870421847194,12.149545314309-14.718232144816,22.018488602787-21.052547409072Z"/>
      <path class="cls-2" d="M133.794833435857,47.982847541698l-4.128605302029-3.868979481527c-.648121466013-.607346898045-1.671590859703-.552426051398-2.251033529608.120714911414l-4.855113794616,5.640315474831c-.403085729013.46832503776-.492124071301,1.130038026427-.227228068543,1.688122589299l1.444085413144,3.042725855334c.282648195613.595586070283.16071282094,1.304786174838-.304616534269,1.771668846923l-2.830087870294,2.839796100763c-.402586448588.403973338653-.993346141438.556198392384-1.541112242217.397316266331l-3.957019262967-1.148234024095c-.534008151317-.154998833863-1.110177760664-.014201754284-1.51270873365.369578465001l-4.910478446083,4.682584670309c-.627262639407.598137947998-.647289331973,1.592815503907-.044546908945,2.2156955707l4.251039957124,4.393223926772c6.998746557452-8.226809973792,17.023077009013-18.322925855211,20.867425322953-22.144529172056Z"/>
      <path class="cls-2" d="M113.8824760885,71.114398636488l1.907473122263,1.971270065336c.602742423027.622991018006,1.597419978929.63563945541,2.215917473115.028514459773l1.105240432027-1.085102788258,3.761356812343,2.822820566349,3.120169796664-2.89815643478-3.043502513772-3.692567065027,9.185372912358-9.017670165482,3.277942410661,3.187406227102,4.472054758169-4.579621951749-3.002894372616-3.007887176853.77055612111-1.016756845765c.633586858112-.62199245716.62171507914-1.646515887294-.026129008858-2.253640882933l-2.834026638084-2.655728051097c-3.791480064594,3.775447615422-13.945623426407,14.014246746907-20.90953130538,22.197120043384Z"/>
    </g>
  </g>
  <g>
    <path class="cls-3" d="M139.287528331979,112.014341462189c2.851834306541-5.553551632258,11.390472642952-4.219030534388,11.390472642952-4.219030534388l1.996844318166-12.15037744835c-7.129779930961-2.469108123707-11.63212436819,4.270289991253-11.63212436819,4.270289991253-4.352726736821-6.904382557306-13.185385767392-3.834473656665-13.185385767392-3.834473656665l-5.632160561239,39.84635017976c3.94215180145-.20337355939,7.960915410189-.393765827761,12.040757657469-.572397268368.912351761539-6.456250638921,2.92051310265-19.248924615002,5.021596078235-23.340361263241Z"/>
    <path class="cls-3" d="M165.336153042052,125.518989322954l3.722912219691-3.41718617337,6.542626152286,11.931470720212c4.631602591453-.096305646237,9.322120272942-.176190514085,14.058516277843-.241651725242l-10.154809069045-21.278555014353,18.273441617628-16.773159418977h-14.997107999443l-14.854091895757,13.076930964173,3.122832625593-20.126215795652-10.7954968043-15.480023120708-8.885083475096,61.481613319287c4.215868425032-.142239445247,8.491872403358-.271053794648,12.820855582237-.386775901825l1.145404768362-8.786447853545Z"/>
    <g>
      <path class="cls-1" d="M233.148697613829,87.349888514376c-4.801468886833-3.22868007549-11.429582942837-2.322097776636-15.007370985939-1.476538640709l-2.493517388884,16.070727337947c4.050717555878.211140143771,8.485437233448.400200997676,11.818855246782.428937359853,8.03713888826.069344503347,12.570272284971-10.391135136419,5.682033128041-15.023126057091Z"/>
      <path class="cls-3" d="M213.389785783462,116.496548255642c2.861209683393-.519695445828,7.588507689454-1.148344975298,8.499195182912.161766857396.876237144197,1.260405692699,4.897663581865,10.713559339149,7.516888686405,16.961665516848,5.452863413404.027515898924,10.839156103601.079773916643,16.175964556214.148119859135l-6.951370392768-19.741991771549s11.721384612887-6.109971927055,12.760553602135-19.211423107601c1.039224464848-13.101562131757-3.371196898757-28.237081759866-46.40928040262-21.509444472671l-9.033314285434,60.410379431694c4.981043412681-.053811334588,10.010184172879-.091201890795,15.087977036619-.109730742081l2.353386016537-17.109341571173ZM218.141326627891,85.873349873667c3.577788043101-.845559135927,10.205902099106-1.752141434781,15.007370985939,1.476538640709,6.88823915693,4.631990920672,2.355105760218,15.092470560438-5.682033128041,15.023126057091-3.333418013333-.028736362177-7.768137690904-.217797216083-11.818855246782-.428937359853l2.493517388884-16.070727337947Z"/>
      <path class="cls-3" d="M341.070102917209,95.739907711224h-13.358525123333l-5.238228306667,40.58894659712c4.490195280239.254854918672,8.878759256391.525686810921,13.159256758536.811829969496l5.437496671464-41.400776566616Z"/>
      <path class="cls-3" d="M359.267875812793,113.512626539145c2.21525176588-6.478884684821,11.332112308943-7.770134812601,11.050629100979,1.147013560834-.195606975012,6.192852477441-1.961284456851,18.965222382942-2.858324952049,25.085623723297,4.494633328452.446245747895,8.785671195106.913350322386,12.874888819239,1.398318040941.978256777509-5.779448286334,2.980371277936-17.891436617632,3.795973588407-24.912872696577,1.313329417655-11.307259238945-1.500947905883-17.048318408228-9.456038377786-19.37485423307-6.431397568933-1.880955784181-12.549690836384.541774735695-14.87922234377,2.54965869879l.379896927096-2.982479350831-12.776142246486-.031953947138-5.202612969746,41.205613396414c4.446036700516.321980397901,8.759375759442.661380135049,12.940017176777,1.016202089741.519029738591-3.53113306126,3.391334542517-22.937164583027,4.130935277341-25.1002692824Z"/>
      <path class="cls-3" d="M318.963075252554,125.560374122546l-6.941773113504.578832438274c-1.056699279688.264840527158-2.052153494029-.605460727556-1.924781510295-1.687345930859.504827984307-4.290372159419,1.575950920696-13.370285951096,1.751364776341-14.660093713208h.04049718995l9.12462712743-.114945448737,1.405751771705-10.892523633376-8.95254180795.130145763866h-.056030358697c.994344702292-6.638543469302,1.843454276781-11.896299188111,1.843454276781-11.896299188111h-12.919047398969s-1.045937012772,5.221585625872-2.288701463822,11.896299188111l-4.267183357502.080217721466-1.688455442909,10.797105596781h4.008445146643c-.712750543125,4.186188977597-1.345172413583,9.123073810551-1.729063584071,12.246794045792-.070232112988.571842512334-.129812910256,1.111952979945-.187285634618,1.646072082473-.063907894279.595253216663-.079884867848,1.168649045878-.16465158873,1.714307073753-.684014180948,4.403320486461-.690227448447,7.523379331918.186730878586,9.669397545671,7.345080744937.291357865228,14.484236052747.623878627648,21.403597022776.992902336615l1.355047070856-10.50086587851Z"/>
    </g>
  </g>
  <path class="cls-3" d="M101.782581438583,135.576383233711l-.179685477055,1.100192152184-.34283922451,2.099529658704h.404028814257l12.934358665305-1.792194819907,5.576407580553-35.502721441771,1.079999032812-6.875979048735-12.776197722089-.031953947138-.4360937126,2.670373610201-.148508188353.909245127781c-1.524913366238-.929216344743-3.091988190507-1.684683101932-4.56902611164-2.193616280834-.388606596714-.131144324721-.801844361014-.260069625325-1.247036072455-.380118829511-.602298618207-.151781248911-1.180798202866-.252968748184-1.724403633445-.296017815857-1.036783538331-.211029192556-2.176529795221-.361589978214-3.393941895849-.392101559677-.265228856373,0-.530291285939-.000221902415-.801899836619.011982730177,0,0-6.089834283279,20.472050702707-20.227680672942,24.074414437793,0,0-1.273442459327,11.010797618266,6.478385404391,16.837622069279,2.769619463383,2.081777465857,5.916805878547,2.757359355192,8.819899641958,2.770562548629,5.022650114684-.09519613418,9.197244691328-2.104411511747,9.197244691328-2.104411511747l1.356988716952-.904807079569ZM90.360210324094,121.283870863794c-1.366696947418-5.03895994187,2.044830714478-13.10167308296,6.528701776015-14.06750332547,5.13654152697-1.106405419683,7.359227023613,1.646404936084,7.630336293869,5.315672247993,1.472045116892,5.274065545995-2.438818444651,14.093354956321-7.836206255382,14.460714397217-4.248432603801.289249792322-6.082345076919-2.354273626182-6.322831814501-5.708883319739Z"/>
</svg>